<?xml version="1.0" standalone="no"?>
<!DOCTYPE svg PUBLIC "-//W3C//DTD SVG 20010904//EN"
 "http://www.w3.org/TR/2001/REC-SVG-20010904/DTD/svg10.dtd">
<svg version="1.0" xmlns="http://www.w3.org/2000/svg"
 width="366.000000pt" height="366.000000pt" viewBox="0 0 366.000000 366.000000"
 preserveAspectRatio="xMidYMid meet">
<metadata>
Created by potrace 1.11, written by Peter Selinger 2001-2013
</metadata>
<g transform="translate(0.000000,366.000000) scale(0.100000,-0.100000)"
fill="#000000" stroke="none">
<path d="M0 3317 l0 -344 115 0 115 1 0 228 0 228 228 2 227 3 1 113 1 112
-344 0 -343 0 0 -343z"/>
<path d="M2973 3545 l0 -115 229 0 228 0 0 -229 0 -228 113 1 112 1 3 343 2
342 -343 0 -343 0 -1 -115z"/>
<path d="M1718 3314 c-2 -1 -32 -5 -68 -9 -133 -14 -318 -66 -432 -122 -38
-18 -71 -33 -73 -33 -11 0 -169 -102 -224 -144 -97 -75 -220 -202 -293 -302
l-38 -51 84 -56 c46 -31 90 -59 98 -62 9 -4 26 10 45 37 197 273 525 467 853
505 80 9 244 9 325 0 75 -9 224 -48 304 -81 34 -13 61 -21 61 -16 0 6 71 163
87 192 13 24 -276 115 -427 133 -53 7 -297 14 -302 9z"/>
<path d="M2636 2953 c-36 -49 -65 -93 -66 -99 0 -6 19 -24 43 -41 134 -96 302
-318 372 -490 15 -37 31 -77 36 -88 14 -32 47 -174 56 -240 19 -151 5 -476
-33 -717 -3 -18 -8 -51 -11 -74 l-5 -41 38 -7 c56 -9 94 -16 139 -26 22 -5 41
-8 42 -6 5 5 30 156 38 226 4 36 8 72 10 80 8 40 18 228 19 349 3 216 -20 363
-85 548 -89 253 -246 477 -454 648 -26 22 -54 46 -61 53 -11 10 -25 -4 -78
-75z"/>
<path d="M1717 2854 c-2 -2 -21 -5 -43 -8 -21 -2 -59 -9 -84 -16 -25 -7 -49
-13 -55 -14 -27 -5 -85 -31 -85 -38 0 -4 14 -42 31 -85 17 -43 35 -88 40 -101
8 -21 10 -22 46 -7 76 30 176 44 283 41 58 -2 117 -7 133 -10 201 -45 373
-156 491 -316 101 -136 145 -266 152 -445 3 -66 7 -124 8 -130 2 -6 48 -10
112 -10 l109 0 0 110 c-1 197 -33 329 -117 485 -153 286 -424 481 -743 536
-42 7 -272 14 -278 8z"/>
<path d="M1087 2538 c-75 -79 -147 -184 -183 -265 -14 -32 -32 -72 -40 -89
-25 -58 -54 -202 -59 -296 -13 -235 -23 -306 -62 -433 -37 -120 -144 -324
-206 -391 -14 -15 -31 -38 -38 -51 -12 -22 -10 -26 22 -52 19 -16 54 -47 79
-70 25 -22 48 -41 52 -41 10 0 87 95 131 163 92 142 183 350 203 463 3 16 7
37 10 46 12 40 25 135 29 218 3 41 7 111 10 155 13 180 95 363 220 488 l48 48
-29 32 c-16 18 -41 46 -56 62 -15 17 -36 41 -47 55 l-20 25 -64 -67z"/>
<path d="M437 2348 c-64 -181 -84 -284 -92 -478 -5 -110 -8 -137 -20 -205 -8
-45 -44 -144 -69 -195 l-23 -46 23 -17 c12 -9 25 -17 29 -17 3 0 35 -19 71
-41 37 -24 69 -38 74 -33 22 23 94 188 105 244 2 8 8 33 13 55 12 47 21 134
27 260 4 84 7 112 19 190 7 41 54 203 66 226 20 36 10 46 -86 88 -52 22 -99
41 -104 41 -4 0 -19 -33 -33 -72z"/>
<path d="M1707 2389 c-184 -38 -358 -193 -416 -372 -24 -76 -29 -111 -36 -255
-3 -63 -6 -117 -6 -120 -1 -4 -1 -12 0 -18 1 -12 77 -24 170 -27 63 -2 56 -21
66 168 7 133 6 127 30 194 45 122 178 211 315 211 152 0 271 -88 325 -240 14
-41 21 -210 11 -295 -2 -16 -6 -61 -10 -100 -8 -78 -50 -320 -56 -320 -1 0 -4
-11 -6 -25 -7 -35 -42 -158 -59 -201 l-14 -36 92 -33 c51 -18 100 -33 110 -34
15 -1 24 15 43 74 45 141 98 371 109 482 3 23 7 58 10 80 15 98 21 323 10 390
-32 211 -173 380 -380 458 -69 25 -229 36 -308 19z"/>
<path d="M1719 1823 c-1 -5 -3 -30 -4 -58 -3 -65 -14 -193 -19 -225 -3 -14 -7
-41 -10 -60 -20 -130 -79 -339 -132 -468 -73 -178 -196 -390 -298 -517 -18
-22 -36 -46 -40 -53 -8 -14 18 -40 112 -114 l53 -41 22 25 c12 15 29 35 37 45
8 10 46 65 84 123 38 58 77 116 87 130 33 51 129 248 165 341 65 169 120 371
139 509 3 25 8 56 10 70 13 71 24 266 17 288 -5 13 -221 18 -223 5z"/>
<path d="M2609 1478 c0 -13 -2 -32 -4 -43 -2 -11 -7 -42 -11 -70 -3 -27 -7
-52 -9 -55 -2 -3 -6 -26 -9 -52 -4 -26 -16 -84 -27 -130 -12 -46 -22 -87 -23
-93 -15 -63 -79 -262 -102 -312 -8 -17 -14 -33 -14 -36 0 -3 -16 -40 -35 -81
-41 -90 -43 -104 -11 -116 13 -5 56 -25 96 -44 40 -20 74 -36 75 -36 4 0 50
98 77 165 74 182 151 440 183 610 10 50 19 99 21 110 6 29 17 126 18 154 1 25
-1 26 -84 36 -25 3 -66 8 -92 11 -45 5 -48 4 -49 -18z"/>
<path d="M1172 1299 c-72 -217 -208 -457 -339 -596 l-31 -33 80 -72 c44 -40
83 -74 88 -76 12 -4 131 143 200 248 80 124 170 308 214 441 20 59 36 113 36
121 0 12 -108 48 -195 64 -18 3 -25 -10 -53 -97z"/>
<path d="M2975 939 c-2 -8 -21 -68 -40 -133 -20 -65 -42 -134 -50 -153 -11
-26 -12 -35 -2 -38 194 -70 208 -74 212 -62 19 55 67 205 71 220 9 37 13 53
23 84 5 18 6 35 3 37 -4 2 -43 13 -87 25 -44 11 -90 23 -102 27 -15 4 -24 2
-28 -7z"/>
<path d="M1880 629 c-28 -56 -83 -150 -121 -209 -38 -59 -69 -110 -69 -113 0
-7 118 -97 127 -97 4 0 17 -10 29 -21 l23 -21 64 98 c36 55 75 117 87 139 45
80 92 171 106 203 l13 33 -83 38 c-132 61 -116 66 -176 -50z"/>
<path d="M0 343 l0 -343 343 0 343 0 1 115 0 115 -228 0 -229 0 0 228 0 229
-115 -1 -115 0 0 -343z"/>
<path d="M3430 458 l0 -228 -228 0 -229 0 1 -115 0 -115 343 0 343 0 -2 342
-3 343 -112 1 -113 0 0 -228z"/>
</g>
</svg>
