<?xml version="1.0" standalone="no"?>
<!DOCTYPE svg PUBLIC "-//W3C//DTD SVG 20010904//EN"
 "http://www.w3.org/TR/2001/REC-SVG-20010904/DTD/svg10.dtd">
<svg version="1.0" xmlns="http://www.w3.org/2000/svg"
 width="366.000000pt" height="366.000000pt" viewBox="0 0 366.000000 366.000000"
 preserveAspectRatio="xMidYMid meet">
<metadata>
Created by potrace 1.11, written by Peter Selinger 2001-2013
</metadata>
<g transform="translate(0.000000,366.000000) scale(0.100000,-0.100000)"
fill="#000000" stroke="none">
<path d="M2359 3368 c-42 -46 -127 -139 -189 -208 -63 -69 -134 -147 -159
-174 -71 -76 -71 -77 -152 -167 -41 -46 -86 -96 -99 -111 -13 -16 -28 -28 -32
-28 -5 0 -53 38 -106 83 -53 46 -108 92 -121 103 -13 10 -38 31 -55 45 -17 15
-83 65 -146 113 -63 47 -119 89 -125 94 -140 106 -415 256 -511 277 -113 26
-194 -26 -194 -122 1 -105 119 -316 318 -565 85 -107 228 -273 282 -329 8 -8
57 -58 108 -111 l94 -95 -29 -30 c-15 -16 -60 -65 -100 -109 -39 -43 -93 -102
-120 -131 l-48 -52 -90 85 c-49 47 -151 143 -225 212 -135 127 -216 204 -365
344 -44 42 -102 96 -130 122 l-50 46 -43 -47 -42 -48 98 -95 c55 -52 164 -156
243 -230 168 -158 263 -246 374 -351 44 -42 94 -89 112 -106 l32 -29 -75 -90
c-348 -413 -603 -838 -604 -1005 0 -40 21 -100 42 -116 51 -42 147 -31 269 31
66 34 206 121 219 136 3 3 21 17 40 30 37 26 238 194 305 254 22 20 99 95 170
165 l130 129 85 -80 c47 -44 118 -112 158 -150 l73 -70 -43 -46 c-23 -26 -58
-64 -78 -86 -19 -21 -46 -51 -60 -66 -67 -73 -208 -228 -310 -340 -152 -166
-185 -203 -247 -269 l-52 -56 47 -47 47 -47 34 37 c63 68 218 237 242 264 41
45 183 201 199 218 8 9 35 38 59 66 25 27 88 96 140 153 53 57 98 107 99 112
8 22 40 4 120 -69 439 -393 909 -692 1089 -692 40 0 50 5 80 38 19 20 39 47
43 58 24 60 -23 191 -127 356 -58 92 -212 299 -270 363 -10 12 -52 59 -93 105
-87 99 -175 193 -278 296 -85 85 -89 65 40 205 47 52 105 114 127 139 l41 45
57 -56 c79 -77 130 -126 268 -254 65 -60 134 -126 155 -145 20 -19 92 -87 160
-150 67 -63 139 -131 159 -150 69 -67 65 -67 109 -9 l39 51 -71 66 c-39 36
-134 125 -211 198 -77 72 -158 148 -180 169 -36 34 -178 167 -337 316 -42 40
-58 61 -52 70 4 8 45 59 89 114 327 399 557 805 543 956 -4 41 -11 54 -44 84
-21 20 -49 38 -62 42 -136 34 -497 -203 -896 -588 -76 -74 -142 -134 -147
-134 -4 0 -54 43 -110 95 -56 52 -122 114 -146 136 -25 23 -44 46 -42 52 2 6
42 52 89 103 47 51 94 103 105 115 55 60 182 200 195 214 8 9 55 61 105 116
49 54 115 125 145 157 30 32 57 63 59 68 3 9 -77 89 -89 89 -3 0 -40 -37 -81
-82z m-1212 -448 c81 -37 250 -150 368 -245 131 -105 126 -96 69 -158 -26 -28
-51 -54 -54 -57 -3 -3 -40 -44 -84 -92 -43 -49 -82 -88 -87 -88 -5 0 -28 21
-51 47 -24 25 -52 56 -63 67 -42 43 -156 188 -205 262 -76 112 -103 175 -97
230 2 24 6 46 8 48 40 34 105 29 196 -14z m1657 -352 c67 -36 76 -91 33 -193
-32 -76 -132 -239 -211 -344 -39 -52 -74 -99 -77 -104 -10 -15 -27 -1 -178
142 l-142 135 49 45 c139 131 276 234 385 290 78 40 109 46 141 29z m-929
-213 c171 -160 166 -155 152 -170 -7 -6 -46 -49 -87 -95 -41 -45 -100 -109
-130 -141 l-55 -59 -80 77 c-44 42 -110 105 -147 141 -38 35 -68 67 -68 71 0
3 19 27 43 53 23 26 83 93 132 148 50 55 95 99 101 97 6 -1 69 -56 139 -122z
m394 -371 c48 -45 108 -101 134 -126 l49 -44 -91 -101 c-51 -56 -114 -125
-140 -154 l-49 -53 -38 34 c-69 60 -274 254 -274 260 0 6 2 8 145 165 54 60
106 118 114 127 17 20 8 27 150 -108z m-765 -35 c50 -48 108 -102 129 -121
l38 -33 -38 -42 c-41 -45 -170 -185 -221 -242 l-31 -35 -23 20 c-21 18 -48 43
-217 201 -73 69 -74 61 14 155 33 35 93 101 134 146 l74 83 25 -23 c14 -13 66
-62 116 -109z m320 -298 c28 -27 97 -93 154 -148 l103 -98 -28 -30 c-15 -17
-73 -80 -128 -140 -151 -167 -130 -154 -178 -108 -23 22 -58 56 -78 74 -128
119 -189 179 -189 184 0 3 17 24 38 47 20 22 48 53 62 68 143 157 183 200 187
200 3 0 28 -22 57 -49z m-764 -58 c189 -177 221 -210 215 -223 -8 -18 -189
-182 -270 -245 -94 -73 -204 -138 -254 -151 -84 -21 -135 20 -124 101 11 89
139 310 291 502 73 92 62 91 142 16z m1201 -365 c244 -265 392 -487 384 -575
-5 -53 -43 -87 -96 -86 -99 2 -343 158 -628 401 l-35 29 40 43 c21 24 48 53
59 66 101 111 189 204 194 204 3 0 40 -37 82 -82z"/>
</g>
</svg>
