<?xml version="1.0" standalone="no"?>
<!DOCTYPE svg PUBLIC "-//W3C//DTD SVG 20010904//EN"
 "http://www.w3.org/TR/2001/REC-SVG-20010904/DTD/svg10.dtd">
<svg version="1.0" xmlns="http://www.w3.org/2000/svg"
 width="366.000000pt" height="366.000000pt" viewBox="0 0 366.000000 366.000000"
 preserveAspectRatio="xMidYMid meet">
<metadata>
Created by potrace 1.11, written by Peter Selinger 2001-2013
</metadata>
<g transform="translate(0.000000,366.000000) scale(0.100000,-0.100000)"
fill="#000000" stroke="none">
<path d="M2423 3387 c-35 -41 -337 -372 -379 -417 -24 -25 -52 -56 -64 -70
-12 -14 -60 -67 -108 -119 -48 -52 -100 -109 -116 -127 -34 -40 -38 -41 -68
-11 -34 33 -190 163 -298 248 -332 262 -614 419 -749 419 -82 0 -130 -65 -116
-158 13 -96 167 -355 320 -538 134 -160 216 -252 337 -378 56 -58 93 -106 90
-112 -4 -7 -34 -41 -67 -76 -33 -35 -91 -98 -129 -141 -38 -42 -73 -77 -76
-77 -4 0 -20 12 -36 28 -16 15 -90 83 -163 152 -73 69 -153 143 -176 165 -23
22 -102 96 -175 165 -74 69 -165 155 -204 191 l-70 67 -40 -50 -39 -50 69 -65
c38 -36 130 -122 204 -192 74 -70 149 -140 165 -155 17 -15 86 -80 154 -144
68 -65 146 -138 174 -164 47 -43 49 -48 36 -66 -8 -11 -57 -73 -110 -139 -248
-306 -428 -591 -489 -777 -39 -119 -23 -202 46 -231 52 -22 85 -19 172 15 184
71 484 303 802 623 37 37 72 67 76 67 8 0 55 -43 232 -212 85 -81 89 -59 -48
-208 -52 -57 -106 -115 -118 -129 -13 -14 -40 -44 -60 -66 -21 -22 -104 -114
-187 -205 -82 -91 -152 -167 -155 -170 -3 -3 -27 -29 -54 -59 l-49 -54 47 -42
48 -42 51 56 c29 31 75 80 103 111 28 30 62 67 75 82 29 32 178 196 199 218 8
9 51 56 95 105 44 49 87 96 95 105 8 9 41 44 72 78 55 60 58 62 76 45 100 -98
367 -315 530 -432 284 -203 518 -318 611 -301 47 8 97 60 107 110 30 151 -259
568 -713 1030 l-103 104 23 25 c12 14 27 30 32 36 14 16 165 182 193 212 13
14 25 24 27 21 8 -8 243 -228 285 -268 25 -23 108 -101 185 -173 77 -73 171
-161 209 -197 38 -36 87 -82 110 -104 l40 -39 38 44 c21 24 38 48 38 52 0 5
-32 38 -71 75 -137 129 -393 369 -453 425 -209 197 -279 262 -287 265 -17 7
-9 24 33 76 24 28 45 53 48 56 37 33 328 433 374 515 9 17 30 53 46 80 81 136
130 261 137 350 l5 60 -44 43 c-55 53 -92 59 -181 27 -122 -42 -295 -155 -487
-316 -143 -121 -137 -115 -300 -276 l-135 -133 -26 23 c-59 50 -269 251 -269
256 0 3 19 27 43 52 23 25 98 108 167 184 69 76 147 161 173 189 27 28 62 67
79 86 63 71 123 137 185 203 35 37 63 71 63 75 0 5 -20 27 -44 50 l-43 41 -20
-22z m-1232 -552 c119 -60 434 -289 434 -315 0 -10 -74 -94 -189 -217 l-69
-74 -64 68 c-142 153 -294 366 -323 453 -20 62 -5 112 39 126 43 14 80 5 172
-41z m1625 -302 c27 -17 46 -60 39 -91 -22 -116 -141 -312 -332 -550 -15 -18
-5 -25 -167 129 -50 48 -104 98 -120 112 l-28 26 44 43 c164 161 360 305 461
339 51 17 65 16 103 -8z m-1016 -164 c183 -172 221 -209 218 -218 -3 -7 -56
-67 -223 -248 l-40 -43 -110 102 c-201 188 -188 174 -173 189 22 23 204 225
229 253 12 14 25 26 28 26 3 0 35 -28 71 -61z m401 -376 c206 -193 222 -209
213 -225 -5 -9 -56 -66 -113 -127 -57 -61 -110 -120 -118 -131 -8 -11 -20 -20
-26 -20 -7 0 -52 39 -102 86 -49 48 -116 111 -148 142 l-58 55 38 40 c21 23
43 46 48 52 58 68 179 195 185 195 5 0 41 -30 81 -67z m-725 -45 c54 -51 120
-113 146 -138 l48 -45 -38 -41 c-60 -67 -216 -236 -231 -251 -15 -16 -4 -24
-166 130 -44 41 -92 86 -107 99 -16 13 -28 28 -28 33 0 6 20 31 43 56 137 147
212 232 215 240 7 18 20 8 118 -83z m389 -364 c50 -48 116 -111 148 -141 l57
-55 -97 -107 c-54 -58 -116 -125 -137 -149 -22 -23 -45 -41 -52 -40 -13 3
-294 268 -294 278 0 7 15 24 136 156 45 49 92 101 105 116 13 15 29 28 34 28
6 -1 51 -39 100 -86z m-661 -127 l98 -93 -73 -66 c-41 -37 -90 -80 -109 -98
-58 -51 -191 -146 -248 -175 -29 -15 -73 -30 -97 -32 -37 -5 -47 -2 -70 22
-24 23 -27 33 -23 74 8 86 118 280 265 469 l64 83 47 -45 c26 -25 91 -87 146
-139z m1189 -412 c105 -130 193 -267 214 -332 15 -46 15 -56 2 -79 -37 -70
-94 -72 -219 -9 -89 45 -315 199 -360 245 -3 3 -30 25 -60 50 -67 55 -80 67
-80 75 0 3 18 25 39 48 22 23 48 52 58 63 10 12 54 60 97 108 l79 86 74 -77
c41 -43 111 -123 156 -178z"/>
<path d="M1663 2250 c-63 -38 -80 -112 -40 -171 41 -61 113 -77 168 -38 58 41
74 109 39 166 -37 61 -108 79 -167 43z"/>
<path d="M2080 1888 c-57 -31 -85 -112 -57 -168 17 -34 74 -70 112 -70 38 0
95 36 112 70 25 49 10 112 -34 152 -26 24 -101 32 -133 16z"/>
<path d="M1303 1860 c-85 -52 -81 -175 8 -215 116 -53 226 72 156 176 -40 60
-105 76 -164 39z"/>
<path d="M1713 1480 c-61 -37 -81 -117 -42 -171 43 -60 112 -75 170 -36 60 40
76 105 39 164 -37 61 -108 79 -167 43z"/>
</g>
</svg>
